<?xml version="1.0" encoding="utf-8"?>
<!-- Generator: Adobe Illustrator 27.7.0, SVG Export Plug-In . SVG Version: 6.00 Build 0)  -->
<svg version="1.1" id="Layer_1" xmlns="http://www.w3.org/2000/svg" xmlns:xlink="http://www.w3.org/1999/xlink" x="0px" y="0px"
	 viewBox="0 0 213 50" style="enable-background:new 0 0 213 50;" xml:space="preserve">
<style type="text/css">
	.st0{fill:#F7F7F7;}
	.st1{fill:#4265ED;}
</style>
<path class="st0" d="M0,49V1h14.3v6.5c1.7-2.6,3.9-4.5,6.6-5.7C23.6,0.6,26.5,0,29.7,0c3.4,0,6.3,0.7,8.7,2c2.4,1.3,4.4,3.1,5.9,5.3
	c1.5,2.2,2.6,4.8,3.4,7.7c0.7,2.9,1.1,6,1.1,9.1v25H34V24c0-4.3-0.7-7.6-2.2-9.9c-1.5-2.2-3.9-3.4-7.3-3.4c-2.2,0-4,0.5-5.6,1.4
	c-1.6,0.9-2.9,2-3.9,3.3V49H0z"/>
<path class="st0" d="M84.9,0c3.5,0,6.6,0.5,9.3,1.5c2.7,1,5,2.4,6.8,4.2c1.8,1.8,3.2,4,4.1,6.5c0.9,2.5,1.4,5.4,1.4,8.5
	c0,1.3-0.1,2.6-0.3,4c-0.2,1.3-0.5,2.6-0.8,3.7H74.1c0.1,3.5,1.3,6.3,3.6,8.4c2.2,2.1,5.8,3.1,10.7,3.1c2.8,0,5.6-0.2,8.2-0.7
	c2.7-0.5,5.1-1.2,7.2-2l1.8,9.2c-2.6,1.2-5.6,2.1-8.9,2.7C93.5,49.7,90,50,86.5,50c-4.4,0-8.3-0.6-11.7-1.8c-3.4-1.2-6.3-2.9-8.6-5
	c-2.4-2.2-4.1-4.8-5.4-7.8c-1.2-3.1-1.8-6.4-1.8-10.1c0-3.7,0.6-7.2,1.8-10.3c1.2-3.1,2.9-5.8,5.2-8c2.2-2.2,5-3.9,8.2-5.1
	C77.3,0.6,80.9,0,84.9,0z M84.1,9.1c-3,0-5.4,1-7,2.9c-1.6,1.9-2.6,4.4-2.9,7.3h18.1c0.4-3.1-0.1-5.6-1.5-7.4S87.2,9.1,84.1,9.1z"/>
<path class="st0" d="M149.8,12.5h-2.5c-3.7,0-6.8,0.5-9.2,1.6c-2.5,1-4.4,2.6-5.9,4.5V49h-14.9V1h14.3v8.5c1-2.8,2.6-5,4.8-6.6
	c2.2-1.6,5.2-2.4,8.8-2.4c1.7,0,3.1,0.2,4.4,0.5L149.8,12.5L149.8,12.5z"/>
<path class="st1" d="M177.5,1l16,48h-15.6l-3.3-8.6L159.4,1H177.5z"/>
<path class="st0" d="M212.2,1l-10.3,26.6L193,1H212.2z"/>
</svg>
