<svg width="213" height="50" viewBox="0 0 213 50" fill="none" xmlns="http://www.w3.org/2000/svg">
<path d="M0 49.0129V0.98713H14.3221V7.49719C16.0609 4.93565 18.26 3.04261 20.9403 1.82432C23.6136 0.606023 26.5413 0 29.7301 0C33.132 0 36.039 0.656004 38.4649 1.97426C40.884 3.29252 42.8564 5.04811 44.3752 7.24728C45.894 9.45271 47.0142 12.0142 47.7358 14.9381C48.4575 17.8621 48.8217 20.9047 48.8217 24.0597V49.0129H33.9566V23.966C33.9566 19.6239 33.2144 16.3376 31.73 14.101C30.2455 11.8643 27.8058 10.746 24.4108 10.746C22.2392 10.746 20.363 11.2083 18.7686 12.1267C17.1742 13.0451 15.8753 14.1322 14.8651 15.3817V49.0129H0Z" fill="#0A426E"/>
<path d="M84.9432 0C88.4138 0 91.5063 0.493565 94.221 1.48069C96.9356 2.46782 99.1897 3.8673 101.004 5.67287C102.811 7.48469 104.186 9.65263 105.127 12.1829C106.069 14.7132 106.536 17.5559 106.536 20.711C106.536 22.0292 106.447 23.36 106.268 24.7032C106.09 26.0527 105.815 27.2835 105.457 28.4018H74.1054C74.2497 31.9255 75.4455 34.7245 77.6859 36.8112C79.9263 38.8979 83.5069 39.9413 88.4275 39.9413C91.2452 39.9413 93.9942 39.7039 96.6744 39.229C99.3478 38.7542 101.733 38.0732 103.835 37.1798L105.677 46.3514C103.073 47.5322 100.111 48.4381 96.7844 49.0629C93.4581 49.6876 90.0219 50 86.4757 50C82.0636 50 78.1601 49.4065 74.7583 48.2257C71.3564 47.0449 68.4837 45.3642 66.1334 43.1963C63.783 41.0284 61.9893 38.4106 60.766 35.3555C59.5358 32.3004 58.9242 28.9267 58.9242 25.2468C58.9242 21.4982 59.5221 18.062 60.711 14.9381C61.9068 11.8143 63.6249 9.15282 65.8653 6.94739C68.1058 4.74197 70.8341 3.03636 74.0573 1.81807C77.2529 0.612271 80.8885 0 84.9432 0ZM84.0704 9.0716C81.0328 9.0716 78.703 10.04 77.0743 11.983C75.4455 13.926 74.4902 16.3689 74.2016 19.3303H92.3173C92.6815 16.2377 92.173 13.7573 90.7985 11.883C89.424 10.0087 87.1836 9.0716 84.0704 9.0716Z" fill="#0A426E"/>
<path d="M149.812 12.5265H147.317C143.627 12.5265 140.555 13.0513 138.095 14.1072C135.634 15.1568 133.682 16.6687 132.239 18.643V49.0191H117.374V0.987095H131.696V9.47141C132.707 6.64747 134.315 4.44205 136.521 2.86139C138.727 1.28074 141.675 0.49353 145.359 0.49353C147.022 0.49353 148.506 0.655969 149.805 0.987095V12.5265H149.812Z" fill="#0A426E"/>
<path d="M177.494 0.987183L193.534 49.0129H177.906L174.573 40.3787L159.358 0.987183H177.494Z" fill="#4265ED"/>
<path d="M212.186 0.987183L201.912 27.5835L193.026 0.987183H212.186Z" fill="#0A426E"/>
</svg>
